<svg width="21" height="19" viewBox="0 0 21 19" fill="none" xmlns="http://www.w3.org/2000/svg">
<path d="M19.4062 2.34377C18.3873 1.32738 17.0074 0.755816 15.5682 0.754059C14.129 0.752302 12.7477 1.3205 11.7262 2.33439L10.5 3.47345L9.2728 2.33064C8.25164 1.31233 6.86777 0.741392 5.42565 0.743414C3.98352 0.745435 2.60127 1.32026 1.58296 2.34142C0.564654 3.36259 -0.00628898 4.74645 -0.00426711 6.18858C-0.00224524 7.6307 0.572576 9.01296 1.59374 10.0313L9.9703 18.5306C10.0401 18.6015 10.1233 18.6578 10.215 18.6962C10.3068 18.7346 10.4052 18.7544 10.5047 18.7544C10.6041 18.7544 10.7026 18.7346 10.7943 18.6962C10.8861 18.6578 10.9693 18.6015 11.0391 18.5306L19.4062 10.0313C20.4253 9.01163 20.9977 7.62907 20.9977 6.18752C20.9977 4.74596 20.4253 3.3634 19.4062 2.34377ZM18.3422 8.97752L10.5 16.9313L2.65312 8.97002C1.91465 8.23155 1.49979 7.22999 1.49979 6.18564C1.49979 5.1413 1.91465 4.13973 2.65312 3.40127C3.39158 2.6628 4.39315 2.24794 5.43749 2.24794C6.48184 2.24794 7.4834 2.6628 8.22187 3.40127L8.24062 3.42002L9.98905 5.04658C10.1278 5.17574 10.3104 5.24754 10.5 5.24754C10.6896 5.24754 10.8721 5.17574 11.0109 5.04658L12.7594 3.42002L12.7781 3.40127C13.5171 2.6633 14.5189 2.24911 15.5633 2.24982C16.6076 2.25052 17.6089 2.66606 18.3469 3.40502C19.0848 4.14398 19.499 5.14582 19.4983 6.19017C19.4976 7.23451 19.0821 8.2358 18.3431 8.97377L18.3422 8.97752Z" fill="#999999"/>
</svg>
