<svg width="25" height="24" viewBox="0 0 25 24" fill="none" xmlns="http://www.w3.org/2000/svg">
<path d="M23 9.18754C23.0016 9.90177 22.8616 10.6092 22.588 11.269C22.3144 11.9288 21.9128 12.5277 21.4062 13.0313L13.0344 21.5269C12.9646 21.5978 12.8814 21.6541 12.7897 21.6925C12.6979 21.7309 12.5994 21.7507 12.5 21.7507C12.4005 21.7507 12.3021 21.7309 12.2103 21.6925C12.1186 21.6541 12.0354 21.5978 11.9656 21.5269L3.59374 13.0313C2.57307 12.0119 1.99917 10.6287 1.99829 9.18617C1.99741 7.7436 2.56963 6.35977 3.58905 5.3391C4.60848 4.31843 5.99161 3.74453 7.43418 3.74365C8.87674 3.74277 10.2606 4.31499 11.2812 5.33441L12.5 6.47348L13.7272 5.33066C14.4888 4.57278 15.458 4.05754 16.5122 3.85001C17.5665 3.64247 18.6586 3.75193 19.6507 4.16458C20.6428 4.57722 21.4904 5.27455 22.0865 6.16853C22.6826 7.0625 23.0005 8.11305 23 9.18754Z" fill="black"/>
</svg>
