<svg width="21" height="15" viewBox="0 0 21 15" fill="none" xmlns="http://www.w3.org/2000/svg">
<path d="M0 1C0 0.801088 0.0790178 0.610322 0.21967 0.46967C0.360322 0.329018 0.551088 0.25 0.75 0.25H17.25C17.4489 0.25 17.6397 0.329018 17.7803 0.46967C17.921 0.610322 18 0.801088 18 1C18 1.19891 17.921 1.38968 17.7803 1.53033C17.6397 1.67098 17.4489 1.75 17.25 1.75H0.75C0.551088 1.75 0.360322 1.67098 0.21967 1.53033C0.0790178 1.38968 0 1.19891 0 1ZM0.75 7.75H6.75C6.94891 7.75 7.13968 7.67098 7.28033 7.53033C7.42098 7.38968 7.5 7.19891 7.5 7C7.5 6.80109 7.42098 6.61032 7.28033 6.46967C7.13968 6.32902 6.94891 6.25 6.75 6.25H0.75C0.551088 6.25 0.360322 6.32902 0.21967 6.46967C0.0790178 6.61032 0 6.80109 0 7C0 7.19891 0.0790178 7.38968 0.21967 7.53033C0.360322 7.67098 0.551088 7.75 0.75 7.75ZM8.25 12.25H0.75C0.551088 12.25 0.360322 12.329 0.21967 12.4697C0.0790178 12.6103 0 12.8011 0 13C0 13.1989 0.0790178 13.3897 0.21967 13.5303C0.360322 13.671 0.551088 13.75 0.75 13.75H8.25C8.44891 13.75 8.63968 13.671 8.78033 13.5303C8.92098 13.3897 9 13.1989 9 13C9 12.8011 8.92098 12.6103 8.78033 12.4697C8.63968 12.329 8.44891 12.25 8.25 12.25ZM20.25 8.5C20.25 11.9238 15.5363 14.32 15.3356 14.4213C15.2314 14.4734 15.1165 14.5005 15 14.5005C14.8835 14.5005 14.7686 14.4734 14.6644 14.4213C14.4637 14.32 9.75 11.9238 9.75 8.5C9.75049 7.89084 9.93642 7.29627 10.283 6.79535C10.6297 6.29443 11.1206 5.9109 11.6905 5.69576C12.2604 5.48063 12.8823 5.44408 13.4734 5.59097C14.0646 5.73787 14.5971 6.06126 15 6.51813C15.4029 6.06126 15.9354 5.73787 16.5266 5.59097C17.1177 5.44408 17.7396 5.48063 18.3095 5.69576C18.8794 5.9109 19.3703 6.29443 19.717 6.79535C20.0636 7.29627 20.2495 7.89084 20.25 8.5ZM18.75 8.5C18.75 8.10218 18.592 7.72064 18.3107 7.43934C18.0294 7.15804 17.6478 7 17.25 7C16.8522 7 16.4706 7.15804 16.1893 7.43934C15.908 7.72064 15.75 8.10218 15.75 8.5C15.75 8.69891 15.671 8.88968 15.5303 9.03033C15.3897 9.17098 15.1989 9.25 15 9.25C14.8011 9.25 14.6103 9.17098 14.4697 9.03033C14.329 8.88968 14.25 8.69891 14.25 8.5C14.25 8.10218 14.092 7.72064 13.8107 7.43934C13.5294 7.15804 13.1478 7 12.75 7C12.3522 7 11.9706 7.15804 11.6893 7.43934C11.408 7.72064 11.25 8.10218 11.25 8.5C11.25 10.3919 13.7072 12.1694 15 12.8997C16.2928 12.1703 18.75 10.3928 18.75 8.5Z" fill="#999999"/>
</svg>
