<svg width="18" height="18" viewBox="0 0 18 18" fill="none" xmlns="http://www.w3.org/2000/svg">
<path d="M16.5 0H1.5C1.10218 0 0.720644 0.158035 0.43934 0.43934C0.158035 0.720644 0 1.10218 0 1.5V16.5C0 16.8978 0.158035 17.2794 0.43934 17.5607C0.720644 17.842 1.10218 18 1.5 18H16.5C16.8978 18 17.2794 17.842 17.5607 17.5607C17.842 17.2794 18 16.8978 18 16.5V1.5C18 1.10218 17.842 0.720644 17.5607 0.43934C17.2794 0.158035 16.8978 0 16.5 0ZM6.75 14.25H3C2.80109 14.25 2.61032 14.171 2.46967 14.0303C2.32902 13.8897 2.25 13.6989 2.25 13.5C2.25 13.3011 2.32902 13.1103 2.46967 12.9697C2.61032 12.829 2.80109 12.75 3 12.75H6.75C6.94891 12.75 7.13968 12.829 7.28033 12.9697C7.42098 13.1103 7.5 13.3011 7.5 13.5C7.5 13.6989 7.42098 13.8897 7.28033 14.0303C7.13968 14.171 6.94891 14.25 6.75 14.25ZM2.25 9C2.25 8.80109 2.32902 8.61032 2.46967 8.46967C2.61032 8.32902 2.80109 8.25 3 8.25H6C6.19891 8.25 6.38968 8.32902 6.53033 8.46967C6.67098 8.61032 6.75 8.80109 6.75 9C6.75 9.19891 6.67098 9.38968 6.53033 9.53033C6.38968 9.67098 6.19891 9.75 6 9.75H3C2.80109 9.75 2.61032 9.67098 2.46967 9.53033C2.32902 9.38968 2.25 9.19891 2.25 9ZM12.1678 14.3981C12.1157 14.4242 12.0583 14.4378 12 14.4378C11.9417 14.4378 11.8843 14.4242 11.8322 14.3981C11.6859 14.325 8.25 12.5784 8.25 10.125C8.25018 9.68674 8.38996 9.25993 8.64907 8.90646C8.90818 8.553 9.27315 8.29126 9.69104 8.15921C10.1089 8.02715 10.558 8.03165 10.9732 8.17204C11.3884 8.31243 11.748 8.58142 12 8.94C12.252 8.58142 12.6116 8.31243 13.0268 8.17204C13.442 8.03165 13.8911 8.02715 14.309 8.15921C14.7269 8.29126 15.0918 8.553 15.3509 8.90646C15.61 9.25993 15.7498 9.68674 15.75 10.125C15.75 12.5784 12.3141 14.325 12.1678 14.3981ZM15 5.25H3C2.80109 5.25 2.61032 5.17098 2.46967 5.03033C2.32902 4.88968 2.25 4.69891 2.25 4.5C2.25 4.30109 2.32902 4.11032 2.46967 3.96967C2.61032 3.82902 2.80109 3.75 3 3.75H15C15.1989 3.75 15.3897 3.82902 15.5303 3.96967C15.671 4.11032 15.75 4.30109 15.75 4.5C15.75 4.69891 15.671 4.88968 15.5303 5.03033C15.3897 5.17098 15.1989 5.25 15 5.25Z" fill="black"/>
</svg>
