<svg width="18" height="20" viewBox="0 0 18 20" fill="none" xmlns="http://www.w3.org/2000/svg">
<path d="M16.5 2H14.25V1.25C14.25 1.05109 14.171 0.860322 14.0303 0.71967C13.8897 0.579018 13.6989 0.5 13.5 0.5C13.3011 0.5 13.1103 0.579018 12.9697 0.71967C12.829 0.860322 12.75 1.05109 12.75 1.25V2H5.25V1.25C5.25 1.05109 5.17098 0.860322 5.03033 0.71967C4.88968 0.579018 4.69891 0.5 4.5 0.5C4.30109 0.5 4.11032 0.579018 3.96967 0.71967C3.82902 0.860322 3.75 1.05109 3.75 1.25V2H1.5C1.10218 2 0.720644 2.15804 0.43934 2.43934C0.158035 2.72064 0 3.10218 0 3.5V18.5C0 18.8978 0.158035 19.2794 0.43934 19.5607C0.720644 19.842 1.10218 20 1.5 20H16.5C16.8978 20 17.2794 19.842 17.5607 19.5607C17.842 19.2794 18 18.8978 18 18.5V3.5C18 3.10218 17.842 2.72064 17.5607 2.43934C17.2794 2.15804 16.8978 2 16.5 2ZM16.5 18.5H1.5V3.5H3.75V4.25C3.75 4.44891 3.82902 4.63968 3.96967 4.78033C4.11032 4.92098 4.30109 5 4.5 5C4.69891 5 4.88968 4.92098 5.03033 4.78033C5.17098 4.63968 5.25 4.44891 5.25 4.25V3.5H12.75V4.25C12.75 4.44891 12.829 4.63968 12.9697 4.78033C13.1103 4.92098 13.3011 5 13.5 5C13.6989 5 13.8897 4.92098 14.0303 4.78033C14.171 4.63968 14.25 4.44891 14.25 4.25V3.5H16.5V18.5ZM13.5581 9.65375L10.7606 9.43719L9.68906 6.95281C9.63116 6.81808 9.53503 6.70327 9.41256 6.6226C9.29008 6.54194 9.14665 6.49894 9 6.49894C8.85335 6.49894 8.70992 6.54194 8.58745 6.6226C8.46497 6.70327 8.36884 6.81808 8.31094 6.95281L7.23938 9.43719L4.44187 9.65375C4.293 9.66548 4.15101 9.7214 4.03411 9.81433C3.9172 9.90726 3.8307 10.033 3.78569 10.1754C3.74068 10.3178 3.7392 10.4703 3.78144 10.6136C3.82369 10.7568 3.90773 10.8842 4.02281 10.9794L6.13406 12.7222L5.49094 15.32C5.45568 15.4632 5.46345 15.6137 5.51326 15.7525C5.56308 15.8914 5.65273 16.0124 5.771 16.1006C5.88927 16.1887 6.0309 16.2401 6.17819 16.2481C6.32548 16.2562 6.47187 16.2206 6.59906 16.1459L9 14.7331L11.4009 16.1459C11.5281 16.2206 11.6745 16.2562 11.8218 16.2481C11.9691 16.2401 12.1107 16.1887 12.229 16.1006C12.3473 16.0124 12.4369 15.8914 12.4867 15.7525C12.5366 15.6137 12.5443 15.4632 12.5091 15.32L11.8659 12.7222L13.9772 10.9794C14.0923 10.8842 14.1763 10.7568 14.2186 10.6136C14.2608 10.4703 14.2593 10.3178 14.2143 10.1754C14.1693 10.033 14.0828 9.90726 13.9659 9.81433C13.849 9.7214 13.707 9.66548 13.5581 9.65375ZM10.5478 11.8663C10.4387 11.9561 10.3572 12.075 10.3128 12.2092C10.2683 12.3434 10.2627 12.4874 10.2966 12.6247L10.6247 13.9484L9.38062 13.2162C9.26528 13.1483 9.13386 13.1125 9 13.1125C8.86614 13.1125 8.73472 13.1483 8.61938 13.2162L7.37531 13.9484L7.70344 12.6247C7.73729 12.4874 7.73167 12.3434 7.68721 12.2092C7.64276 12.075 7.56129 11.9561 7.45219 11.8663L6.41062 11.0056L7.80656 10.8978C7.94273 10.8874 8.07347 10.8399 8.18466 10.7606C8.29585 10.6813 8.38327 10.5732 8.4375 10.4478L9 9.14281L9.5625 10.4478C9.61673 10.5732 9.70415 10.6813 9.81534 10.7606C9.92653 10.8399 10.0573 10.8874 10.1934 10.8978L11.5894 11.0056L10.5478 11.8663Z" fill="#999999"/>
</svg>
