<svg width="18" height="20" viewBox="0 0 18 20" fill="none" xmlns="http://www.w3.org/2000/svg">
<path d="M16.5 2H14.25V1.25C14.25 1.05109 14.171 0.860322 14.0303 0.71967C13.8897 0.579018 13.6989 0.5 13.5 0.5C13.3011 0.5 13.1103 0.579018 12.9697 0.71967C12.829 0.860322 12.75 1.05109 12.75 1.25V2H5.25V1.25C5.25 1.05109 5.17098 0.860322 5.03033 0.71967C4.88968 0.579018 4.69891 0.5 4.5 0.5C4.30109 0.5 4.11032 0.579018 3.96967 0.71967C3.82902 0.860322 3.75 1.05109 3.75 1.25V2H1.5C1.10218 2 0.720644 2.15804 0.43934 2.43934C0.158035 2.72064 0 3.10218 0 3.5V18.5C0 18.8978 0.158035 19.2794 0.43934 19.5607C0.720644 19.842 1.10218 20 1.5 20H16.5C16.8978 20 17.2794 19.842 17.5607 19.5607C17.842 19.2794 18 18.8978 18 18.5V3.5C18 3.10218 17.842 2.72064 17.5607 2.43934C17.2794 2.15804 16.8978 2 16.5 2ZM3.75 5V4.25C3.75 4.05109 3.82902 3.86032 3.96967 3.71967C4.11032 3.57902 4.30109 3.5 4.5 3.5C4.69891 3.5 4.88968 3.57902 5.03033 3.71967C5.17098 3.86032 5.25 4.05109 5.25 4.25V5C5.25 5.19891 5.17098 5.38968 5.03033 5.53033C4.88968 5.67098 4.69891 5.75 4.5 5.75C4.30109 5.75 4.11032 5.67098 3.96967 5.53033C3.82902 5.38968 3.75 5.19891 3.75 5ZM13.7391 10.6906L11.4459 12.5834L12.1453 15.4062C12.1631 15.4779 12.1594 15.5533 12.1345 15.6228C12.1097 15.6924 12.0648 15.753 12.0056 15.7972C11.9407 15.845 11.8622 15.871 11.7816 15.8713C11.7156 15.8708 11.6509 15.8531 11.5941 15.8197L9 14.2981L6.40875 15.8234C6.34482 15.8613 6.27107 15.8794 6.19687 15.8753C6.12267 15.8712 6.05136 15.8451 5.992 15.8004C5.93263 15.7557 5.88788 15.6944 5.86344 15.6242C5.83899 15.554 5.83594 15.4782 5.85469 15.4062L6.55406 12.5797L4.26094 10.6906C4.20305 10.6431 4.16073 10.5793 4.13942 10.5075C4.11812 10.4357 4.11881 10.3591 4.1414 10.2877C4.164 10.2163 4.20746 10.1533 4.2662 10.1068C4.32493 10.0603 4.39624 10.0325 4.47094 10.0269L7.49344 9.79344L8.65594 7.10187C8.68502 7.03478 8.73309 6.97766 8.79422 6.93753C8.85535 6.8974 8.92688 6.87603 9 6.87603C9.07312 6.87603 9.14465 6.8974 9.20578 6.93753C9.26691 6.97766 9.31498 7.03478 9.34406 7.10187L10.5066 9.79344L13.5291 10.0269C13.6038 10.0325 13.6751 10.0603 13.7338 10.1068C13.7925 10.1533 13.836 10.2163 13.8586 10.2877C13.8812 10.3591 13.8819 10.4357 13.8606 10.5075C13.8393 10.5793 13.7969 10.6431 13.7391 10.6906ZM14.25 5C14.25 5.19891 14.171 5.38968 14.0303 5.53033C13.8897 5.67098 13.6989 5.75 13.5 5.75C13.3011 5.75 13.1103 5.67098 12.9697 5.53033C12.829 5.38968 12.75 5.19891 12.75 5V4.25C12.75 4.05109 12.829 3.86032 12.9697 3.71967C13.1103 3.57902 13.3011 3.5 13.5 3.5C13.6989 3.5 13.8897 3.57902 14.0303 3.71967C14.171 3.86032 14.25 4.05109 14.25 4.25V5Z" fill="black"/>
</svg>
